{"title":"Bite Marks 2011 DvDRip XviD Ac3 Feel-Free","uid":7138479,"size":1090596843,"categoryP":"video","categoryS":"movies","magnet":"?xt=urn:btih:bfd97f321a6fc0b5d9d5d3580a5a1dc221eb51da&amp;dn=Bite+Marks+2011+DvDRip+XviD+Ac3+Feel-Free&amp;tr=udp%3A%2F%2Ftracker.openbittorrent.com%3A80&amp;tr=udp%3A%2F%2Fopen.demonii.com%3A1337&amp;tr=udp%3A%2F%2Ftracker.coppersurfer.tk%3A6969&amp;tr=udp%3A%2F%2Fexodus.desync.com%3A6969","seeders":2,"leechers":2,"uploader":null,"files":8,"time":1332928578,"description":"Genre:Comedy | Horror \nLanguage:English\nIMDb:http://www.imdb.com/title/tt1697878/\nSource:DVD Thanks!\nEncoder:Tony\n\nFormat : AVI\nFormat/Info : Audio Video Interleave\nFile size : 1.01 GiB\nDuration : 1h 24mn\nOverall bit rate : 1 722 Kbps\n\nVideo\nID : 0\nFormat : MPEG-4 Visual\nFormat profile : Advanced Simple@L5\nFormat settings, BVOP : 1\nFormat settings, QPel : No\nFormat settings, GMC : No warppoints\nFormat settings, Matrix : Default (H.263)\nCodec ID : XVID\nCodec ID/Hint : XviD\nDuration : 1h 24mn\nBit rate : 1 518 Kbps\nWidth : 640 pixels\nHeight : 360 pixels\nDisplay aspect ratio : 16:9\nFrame rate : 29.970 fps\nColor space : YUV\nChroma subsampling : 4:2:0\nBit depth : 8 bits\nScan type : Progressive\nCompression mode : Lossy\nBits/(Pixel*Frame) : 0.220\nStream size : 916 MiB (88%)\nWriting library : XviD 1.2.1 (UTC 2008-12-04)\n\nAudio\nID : 1\nFormat : AC-3\nFormat/Info : Audio Coding 3\nMode extension : CM (complete main)\nCodec ID : 2000\nDuration : 1h 24mn\nBit rate mode : Constant\nBit rate : 192 Kbps\nChannel(s) : 2 channels\nChannel positions : Front: L R\nSampling rate : 48.0 KHz\nBit depth : 16 bits\nCompression mode : Lossy\nStream size : 116 MiB (11%)\nAlignment : Aligned on interleaves\nInterleave, duration : 33 ms (1.00 video frame)\nInterleave, preload duration : 512 ms\n\n\nPlot:\nTruck-driver Brewster takes over his missing brother's delivery of a load of coffins to a funeral home..","torrent":{"xt":"urn:btih:bfd97f321a6fc0b5d9d5d3580a5a1dc221eb51da","amp;dn":"Bite+Marks+2011+DvDRip+XviD+Ac3+Feel-Free","amp;tr":["udp%3A%2F%2Ftracker.openbittorrent.com%3A80","udp%3A%2F%2Fopen.demonii.com%3A1337","udp%3A%2F%2Ftracker.coppersurfer.tk%3A6969","udp%3A%2F%2Fexodus.desync.com%3A6969"],"infoHash":"bfd97f321a6fc0b5d9d5d3580a5a1dc221eb51da","infoHashBuffer":{"type":"Buffer","data":[191,217,127,50,26,111,192,181,217,213,211,88,10,90,29,194,33,235,81,218]},"announce":[],"urlList":[]}}